<svg width="139" height="139" viewBox="0 0 139 139" fill="none" xmlns="http://www.w3.org/2000/svg">
<path d="M138.516 69.2581C138.516 107.508 107.508 138.516 69.2587 138.516C31.0086 138.516 0 107.508 0 69.2581C0 31.008 31.0086 0 69.2587 0C107.509 0 138.516 31.008 138.516 69.2581Z" fill="#95C4B5"/>
<mask id="mask0_28_6815" style="mask-type:luminance" maskUnits="userSpaceOnUse" x="0" y="0" width="139" height="139">
<path d="M138.516 69.2581C138.516 107.508 107.508 138.516 69.2587 138.516C31.0086 138.516 0 107.508 0 69.2581C0 31.008 31.0086 0 69.2587 0C107.509 0 138.516 31.008 138.516 69.2581Z" fill="white"/>
</mask>
<g mask="url(#mask0_28_6815)">
<path d="M114.378 123.79C114.378 135.359 104.999 144.737 93.4314 144.737H42.468C30.9001 144.737 21.5215 135.359 21.5215 123.79C21.5215 112.222 30.9001 102.844 42.468 102.844H93.4314C104.999 102.844 114.378 112.222 114.378 123.79Z" fill="#67B174"/>
</g>
<mask id="mask1_28_6815" style="mask-type:luminance" maskUnits="userSpaceOnUse" x="0" y="0" width="139" height="139">
<path d="M138.516 69.2581C138.516 107.508 107.508 138.516 69.2587 138.516C31.0086 138.516 0 107.508 0 69.2581C0 31.008 31.0086 0 69.2587 0C107.509 0 138.516 31.008 138.516 69.2581Z" fill="white"/>
</mask>
<g mask="url(#mask1_28_6815)">
<path d="M49.751 102.844V103.065C49.751 113.115 57.8983 123.79 67.9491 123.79C77.9994 123.79 86.1467 113.115 86.1467 103.065V102.844H49.751Z" fill="#478752"/>
</g>
<mask id="mask2_28_6815" style="mask-type:luminance" maskUnits="userSpaceOnUse" x="0" y="0" width="139" height="139">
<path d="M138.516 69.2581C138.516 107.508 107.508 138.516 69.2587 138.516C31.0086 138.516 0 107.508 0 69.2581C0 31.008 31.0086 0 69.2587 0C107.509 0 138.516 31.008 138.516 69.2581Z" fill="white"/>
</mask>
<g mask="url(#mask2_28_6815)">
<path d="M82.5614 104.484C82.5614 112.554 76.0189 119.096 67.9495 119.096C59.8794 119.096 53.3369 112.554 53.3369 104.484V95.444C53.3369 87.3745 59.8788 80.832 67.9495 80.832C76.0189 80.832 82.5614 87.3745 82.5614 95.444V104.484Z" fill="#F7CF9C"/>
</g>
<mask id="mask3_28_6815" style="mask-type:luminance" maskUnits="userSpaceOnUse" x="0" y="0" width="139" height="139">
<path d="M138.516 69.2581C138.516 107.508 107.508 138.516 69.2587 138.516C31.0086 138.516 0 107.508 0 69.2581C0 31.008 31.0086 0 69.2587 0C107.509 0 138.516 31.008 138.516 69.2581Z" fill="white"/>
</mask>
<g mask="url(#mask3_28_6815)">
<path d="M67.9495 80.8311C59.8794 80.8311 53.3369 87.3735 53.3369 95.443V101.343C54.7444 101.53 56.178 101.636 57.6371 101.636H78.5712C79.9226 101.636 81.2523 101.543 82.5608 101.383V95.443C82.5614 87.3735 76.0189 80.8311 67.9495 80.8311Z" fill="#E3BE8F"/>
</g>
<mask id="mask4_28_6815" style="mask-type:luminance" maskUnits="userSpaceOnUse" x="0" y="0" width="139" height="139">
<path d="M138.516 69.2581C138.516 107.508 107.508 138.516 69.2587 138.516C31.0086 138.516 0 107.508 0 69.2581C0 31.008 31.0086 0 69.2587 0C107.509 0 138.516 31.008 138.516 69.2581Z" fill="white"/>
</mask>
<g mask="url(#mask4_28_6815)">
<path d="M32.7078 63.172C32.7078 67.3714 29.3039 70.7752 25.1052 70.7752C20.9058 70.7752 17.502 67.3714 17.502 63.172V59.3112C17.502 55.1118 20.9058 51.708 25.1052 51.708C29.3039 51.708 32.7078 55.1118 32.7078 59.3112V63.172Z" fill="#FEB384"/>
<path d="M118.398 63.172C118.398 67.3714 114.995 70.7752 110.795 70.7752C106.595 70.7752 103.191 67.3714 103.191 63.172V59.3112C103.191 55.1118 106.596 51.708 110.795 51.708C114.994 51.708 118.398 55.1118 118.398 59.3112V63.172Z" fill="#FEB384"/>
<path d="M35.6245 62.4956C35.6245 65.2215 32.502 67.432 28.6506 67.432C24.7986 67.432 21.6768 65.2215 21.6768 62.4956V59.9882C21.6768 57.2616 24.7986 55.0518 28.6506 55.0518C32.502 55.0518 35.6245 57.2616 35.6245 59.9882V62.4956Z" fill="#DE9C73"/>
<path d="M114.222 62.4956C114.222 65.2215 111.1 67.432 107.248 67.432C103.397 67.432 100.274 65.2215 100.274 62.4956V59.9882C100.274 57.2616 103.397 55.0518 107.248 55.0518C111.1 55.0518 114.222 57.2616 114.222 59.9882V62.4956Z" fill="#DE9C73"/>
<path d="M110.795 64.214C110.795 82.0966 96.2986 96.5921 78.4166 96.5921H57.4826C39.6006 96.5921 25.1045 82.0966 25.1045 64.214C25.1045 46.3315 39.6006 31.8359 57.4826 31.8359H78.4166C96.2986 31.8353 110.795 46.3315 110.795 64.214Z" fill="#FEDFB8"/>
<path d="M36.3026 78.3819C39.9025 78.3279 42.777 75.3658 42.723 71.766C42.669 68.1661 39.7069 65.2916 36.107 65.3456C32.5072 65.3996 29.6326 68.3616 29.6866 71.9615C29.7407 75.5614 32.7027 78.4359 36.3026 78.3819Z" fill="#FFB6A1"/>
<path d="M101.105 78.1842C104.596 77.3028 106.711 73.7585 105.83 70.2677C104.949 66.7769 101.404 64.6615 97.9134 65.5429C94.4226 66.4242 92.3072 69.9685 93.1886 73.4593C94.0699 76.9501 97.6142 79.0655 101.105 78.1842Z" fill="#FFB6A1"/>
<path d="M55.5568 58.0681C55.5568 61.3219 52.9193 63.9588 49.6661 63.9588C46.4117 63.9588 43.7754 61.3213 43.7754 58.0681C43.7754 54.8143 46.4123 52.1768 49.6661 52.1768C52.9187 52.1761 55.5568 54.8143 55.5568 58.0681Z" fill="#574444"/>
<path d="M49.6651 62.9134C46.5875 62.9134 44.0651 60.5541 43.8006 57.5449C43.785 57.7174 43.7744 57.891 43.7744 58.0678C43.7744 61.3216 46.4113 63.9585 49.6651 63.9585C52.9183 63.9585 55.5558 61.321 55.5558 58.0678C55.5558 57.891 55.5453 57.7174 55.5297 57.5449C55.2645 60.5535 52.7421 62.9134 49.6651 62.9134Z" fill="#473838"/>
<path d="M50.2365 56.4405C50.2365 57.6556 49.2523 58.6404 48.0372 58.6404C46.8227 58.6404 45.8379 57.6556 45.8379 56.4405C45.8379 55.226 46.8227 54.2412 48.0372 54.2412C49.2523 54.2412 50.2365 55.226 50.2365 56.4405Z" fill="white"/>
<path d="M92.1258 58.0681C92.1258 61.3219 89.4883 63.9588 86.2351 63.9588C82.9807 63.9588 80.3438 61.3213 80.3438 58.0681C80.3438 54.8143 82.9807 52.1768 86.2351 52.1768C89.4883 52.1761 92.1258 54.8143 92.1258 58.0681Z" fill="#574444"/>
<path d="M86.2341 62.9134C83.1565 62.9134 80.6335 60.5541 80.3689 57.5449C80.354 57.7174 80.3428 57.891 80.3428 58.0678C80.3428 61.3216 82.9797 63.9585 86.2341 63.9585C89.4879 63.9585 92.1248 61.321 92.1248 58.0678C92.1248 57.891 92.1136 57.7174 92.0987 57.5449C91.8335 60.5535 89.3105 62.9134 86.2341 62.9134Z" fill="#473838"/>
<path d="M86.8058 56.4405C86.8058 57.6556 85.821 58.6404 84.6065 58.6404C83.3914 58.6404 82.4072 57.6556 82.4072 56.4405C82.4072 55.226 83.3914 54.2412 84.6065 54.2412C85.821 54.2412 86.8058 55.226 86.8058 56.4405Z" fill="white"/>
<path d="M73.1219 65.767C73.206 57.8824 62.6944 57.8824 62.7778 65.767" stroke="#DE9C73" stroke-width="2" stroke-miterlimit="10" stroke-linecap="round" stroke-linejoin="round"/>
<path d="M89.8877 69.2578C78.5887 82.6565 57.311 82.6565 46.0107 69.2578" stroke="#AD515F" stroke-width="3" stroke-miterlimit="10" stroke-linecap="round" stroke-linejoin="round"/>
<path d="M40.9619 54.2416C40.9619 54.2416 41.0254 53.9683 41.1549 53.4984C41.1904 53.3813 41.2196 53.25 41.27 53.1112C41.3317 52.9742 41.3983 52.8254 41.4699 52.6673C41.5446 52.5067 41.6236 52.3361 41.707 52.1556C41.7986 51.9801 41.9212 51.8176 42.0363 51.6346C42.1577 51.4572 42.2717 51.2586 42.4155 51.0762C42.5692 50.9007 42.7279 50.7189 42.8917 50.5321C43.0498 50.3373 43.2359 50.163 43.4332 49.9912C43.6275 49.8156 43.8279 49.6364 44.0433 49.4702C44.494 49.1682 44.9409 48.8134 45.4651 48.5775C45.9649 48.293 46.5196 48.11 47.0605 47.8934C47.6264 47.7545 48.1848 47.5834 48.7569 47.5255C49.3202 47.4115 49.8904 47.4439 50.4326 47.4277C50.7047 47.4389 50.9717 47.467 51.2319 47.4981C51.4927 47.5236 51.7449 47.5585 51.987 47.6251C52.2285 47.6823 52.4632 47.7384 52.6904 47.7925C52.9139 47.8573 53.1218 47.9537 53.3235 48.0278C53.5233 48.11 53.7188 48.1722 53.8931 48.2613C54.063 48.359 54.2249 48.4511 54.3762 48.5377C54.5249 48.6248 54.6644 48.7064 54.7932 48.7817C54.9165 48.8663 55.0205 48.9591 55.1182 49.0344C55.5035 49.3469 55.7083 49.5299 55.7083 49.5299C55.7083 49.5299 55.44 49.4309 54.9962 49.2498C54.8847 49.2062 54.7665 49.1483 54.6308 49.1035C54.4926 49.063 54.3438 49.0201 54.1844 48.974C54.0282 48.9273 53.8607 48.8782 53.6852 48.8259C53.5078 48.7823 53.3161 48.753 53.1212 48.7132C52.9239 48.6802 52.7247 48.6267 52.5118 48.6061C52.2995 48.5862 52.0798 48.5663 51.8538 48.5445C51.6309 48.5128 51.3988 48.5121 51.161 48.5208C50.9238 48.5314 50.6841 48.5103 50.4401 48.524C49.9508 48.5713 49.4491 48.608 48.9455 48.7126C48.4356 48.7748 47.9414 48.9479 47.4384 49.0786C46.9529 49.2622 46.4499 49.4085 45.9979 49.6532C45.5261 49.858 45.0972 50.1207 44.6708 50.3659C44.4641 50.4973 44.2805 50.6523 44.0813 50.7811C43.8827 50.9112 43.6934 51.047 43.5303 51.2026C43.3585 51.3507 43.1917 51.4945 43.0299 51.634C42.8686 51.7753 42.7367 51.9334 42.5954 52.0753C42.4596 52.2204 42.3202 52.3573 42.2013 52.4936C42.0899 52.6362 41.9841 52.7707 41.8845 52.8976C41.7817 53.0265 41.6859 53.1473 41.5969 53.2593C41.511 53.377 41.4462 53.4965 41.3802 53.5986C41.1206 54.0101 40.9619 54.2416 40.9619 54.2416Z" fill="#E67F1D"/>
<path d="M94.3307 54.2419C94.3307 54.2419 94.1719 54.0103 93.9123 53.5976C93.8463 53.4955 93.7816 53.376 93.6957 53.2583C93.6067 53.1463 93.5108 53.0261 93.4081 52.8967C93.3085 52.7697 93.2027 52.6346 93.0913 52.4927C92.9724 52.3563 92.8329 52.2194 92.6972 52.0743C92.5559 51.933 92.4246 51.7737 92.2627 51.633C92.1009 51.4935 91.934 51.3498 91.7622 51.2016C91.5991 51.046 91.4105 50.9109 91.2113 50.7802C91.0127 50.6507 90.8285 50.4963 90.6218 50.365C90.1954 50.1197 89.7659 49.8576 89.2946 49.6522C88.8427 49.4076 88.3397 49.2613 87.8542 49.0776C87.3518 48.9469 86.8569 48.7739 86.3471 48.711C85.8435 48.607 85.3418 48.5697 84.8525 48.523C84.6078 48.5093 84.3682 48.5304 84.1316 48.5199C83.8944 48.5112 83.6616 48.5118 83.4388 48.5435C83.2134 48.5647 82.9937 48.5852 82.7808 48.6051C82.5679 48.6263 82.3681 48.6792 82.1714 48.7122C81.9765 48.7521 81.7842 48.7813 81.6068 48.8249C81.4312 48.8772 81.2644 48.927 81.1075 48.973C80.9482 49.0191 80.7987 49.0621 80.6612 49.1025C80.5248 49.148 80.4066 49.2052 80.2951 49.2488C79.8513 49.4306 79.583 49.5289 79.583 49.5289C79.583 49.5289 79.7884 49.3459 80.1731 49.0334C80.2709 48.9581 80.3754 48.8654 80.4987 48.7807C80.6276 48.7054 80.767 48.6238 80.9164 48.5367C81.0683 48.4501 81.2295 48.3574 81.3995 48.2603C81.5744 48.1713 81.7698 48.109 81.969 48.0268C82.1707 47.9528 82.3787 47.8563 82.6021 47.7915C82.8293 47.7374 83.064 47.6814 83.3056 47.6241C83.5477 47.5575 83.7998 47.5226 84.0606 47.4971C84.3202 47.4666 84.5879 47.438 84.8599 47.4268C85.4021 47.4423 85.9723 47.4106 86.5357 47.5245C87.1078 47.583 87.6662 47.7542 88.2326 47.8924C88.7736 48.109 89.3282 48.292 89.8281 48.5765C90.3523 48.8124 90.7992 49.1673 91.2499 49.4692C91.4653 49.6354 91.6657 49.8147 91.86 49.9902C92.0573 50.162 92.2428 50.3369 92.4015 50.5312C92.5646 50.7179 92.7234 50.8997 92.8771 51.0759C93.0215 51.2582 93.1355 51.4568 93.2568 51.6342C93.372 51.8173 93.4946 51.9803 93.5861 52.1559C93.6696 52.3364 93.7492 52.507 93.8233 52.6676C93.8943 52.8257 93.9615 52.9745 94.0231 53.1114C94.0729 53.2502 94.1022 53.3816 94.1377 53.498C94.2672 53.9686 94.3307 54.2419 94.3307 54.2419Z" fill="#E67F1D"/>
<path d="M110.829 62.8105C110.829 62.8105 108.923 47.0481 95.1237 43.2515C81.3248 39.4543 83.0846 46.8969 67.9671 46.4649C52.8491 46.8969 54.6095 39.4543 40.81 43.2515C27.011 47.0488 25.1049 62.8105 25.1049 62.8105C25.1049 62.8105 22.0422 43.4949 34.1635 31.8361C46.2855 20.1773 74.9105 24.2173 83.3803 13.1182C83.3803 13.1182 109.947 30.8165 110.829 62.8105Z" fill="#E67F1D"/>
<path d="M104.045 48.5561C103.713 46.2541 102.97 43.8699 101.919 41.0444C101.291 39.4732 99.4052 34.1322 97.5203 33.8178C96.2628 33.5034 94.8491 35.8602 93.5923 36.0171C90.9218 36.3315 89.6637 32.4035 88.0931 30.5185C85.8932 32.2466 74.5818 40.7307 72.8543 39.3163C71.2831 38.0589 71.9112 31.3035 71.2831 29.418C69.0838 32.561 67.5127 40.5732 62.9566 41.5156C58.0861 42.6162 58.558 34.7603 55.73 33.8178C53.8444 33.3466 50.0739 36.9602 47.5597 36.9602C45.5179 36.9602 44.5748 35.2321 42.8467 34.9178C40.9612 34.7603 39.3906 36.8027 38.2906 38.217C36.5595 40.4288 35.3873 43.3981 34.4131 46.3425C36.1947 45.029 38.3043 43.9415 40.8105 43.2518C54.6101 39.4545 52.8497 46.8971 67.9677 46.4651C83.0857 46.8971 81.3259 39.4545 95.1243 43.2518C98.9358 44.3001 101.837 46.2647 104.045 48.5561Z" fill="#F08A29"/>
</g>
<mask id="mask5_28_6815" style="mask-type:luminance" maskUnits="userSpaceOnUse" x="0" y="0" width="139" height="139">
<path d="M138.516 69.2581C138.516 107.508 107.508 138.516 69.2587 138.516C31.0086 138.516 0 107.508 0 69.2581C0 31.008 31.0086 0 69.2587 0C107.509 0 138.516 31.008 138.516 69.2581Z" fill="white"/>
</mask>
<g mask="url(#mask5_28_6815)">
<path d="M21.5215 123.791C21.5215 133.427 28.0316 141.539 36.8916 143.981V115.166C36.8916 111.257 35.0646 107.779 32.2247 105.521C25.8385 109.11 21.5215 115.944 21.5215 123.791Z" fill="#478752"/>
<path d="M114.378 123.791C114.378 115.944 110.061 109.11 103.676 105.521C100.835 107.779 99.0088 111.257 99.0088 115.166V143.981C107.869 141.538 114.378 133.427 114.378 123.791Z" fill="#478752"/>
</g>
</svg>
