<svg width="167" height="167" viewBox="0 0 167 167" fill="none" xmlns="http://www.w3.org/2000/svg">
<path d="M151.295 97.45C159.003 59.9836 134.879 23.363 97.4127 15.6556C59.9466 7.94818 23.3262 32.0726 15.6187 69.539C7.91124 107.005 32.0353 143.626 69.5014 151.333C106.967 159.041 143.588 134.916 151.295 97.45Z" fill="#ECA445"/>
<mask id="mask0_28_6823" style="mask-type:luminance" maskUnits="userSpaceOnUse" x="14" y="14" width="139" height="139">
<path d="M150.844 99.6278C159.756 62.4295 136.826 25.0494 99.6278 16.1371C62.4295 7.22484 25.0494 30.1552 16.1371 67.3535C7.22484 104.552 30.1552 141.932 67.3535 150.844C104.552 159.756 141.932 136.826 150.844 99.6278Z" fill="white"/>
</mask>
<g mask="url(#mask0_28_6823)">
<path d="M128.608 138.035C128.608 149.603 119.23 158.981 107.661 158.981H56.6984C45.1299 158.981 35.752 149.603 35.752 138.035C35.752 126.467 45.1299 117.089 56.6984 117.089H107.661C119.23 117.088 128.608 126.467 128.608 138.035Z" fill="#32B4AD"/>
</g>
<mask id="mask1_28_6823" style="mask-type:luminance" maskUnits="userSpaceOnUse" x="14" y="14" width="139" height="139">
<path d="M150.844 99.6278C159.756 62.4295 136.826 25.0494 99.6278 16.1371C62.4295 7.22484 25.0494 30.1552 16.1371 67.3535C7.22484 104.552 30.1552 141.932 67.3535 150.844C104.552 159.756 141.932 136.826 150.844 99.6278Z" fill="white"/>
</mask>
<g mask="url(#mask1_28_6823)">
<path d="M96.7919 118.728V109.689C96.7919 101.618 90.2494 95.0771 82.1799 95.0771C74.1099 95.0771 67.5674 101.618 67.5674 109.689V118.728L82.1799 133.34L96.7919 118.728Z" fill="#F7CF9C"/>
</g>
<mask id="mask2_28_6823" style="mask-type:luminance" maskUnits="userSpaceOnUse" x="14" y="14" width="139" height="139">
<path d="M150.844 99.6278C159.756 62.4295 136.826 25.0494 99.6278 16.1371C62.4295 7.22484 25.0494 30.1552 16.1371 67.3535C7.22484 104.552 30.1552 141.932 67.3535 150.844C104.552 159.756 141.932 136.826 150.844 99.6278Z" fill="white"/>
</mask>
<g mask="url(#mask2_28_6823)">
<path d="M82.1799 95.0771C74.1099 95.0771 67.5674 101.618 67.5674 109.689V115.589C68.9755 115.776 70.4091 115.882 71.8676 115.882H92.8017C94.155 115.882 95.484 115.79 96.7919 115.629V109.69C96.7919 101.618 90.2494 95.0771 82.1799 95.0771Z" fill="#E3BE8F"/>
</g>
<mask id="mask3_28_6823" style="mask-type:luminance" maskUnits="userSpaceOnUse" x="14" y="14" width="139" height="139">
<path d="M150.844 99.6278C159.756 62.4295 136.826 25.0494 99.6278 16.1371C62.4295 7.22484 25.0494 30.1552 16.1371 67.3535C7.22484 104.552 30.1552 141.932 67.3535 150.844C104.552 159.756 141.932 136.826 150.844 99.6278Z" fill="white"/>
</mask>
<g mask="url(#mask3_28_6823)">
<path d="M67.567 113.981L63.9814 117.088L75.6073 136.251L82.1796 133.34L67.567 113.981Z" fill="#1F7674"/>
</g>
<mask id="mask4_28_6823" style="mask-type:luminance" maskUnits="userSpaceOnUse" x="14" y="14" width="139" height="139">
<path d="M150.844 99.6278C159.756 62.4295 136.826 25.0494 99.6278 16.1371C62.4295 7.22484 25.0494 30.1552 16.1371 67.3535C7.22484 104.552 30.1552 141.932 67.3535 150.844C104.552 159.756 141.932 136.826 150.844 99.6278Z" fill="white"/>
</mask>
<g mask="url(#mask4_28_6823)">
<path d="M96.7923 113.981L100.378 117.088L88.7527 136.251L82.1797 133.34L96.7923 113.981Z" fill="#1F7674"/>
</g>
<mask id="mask5_28_6823" style="mask-type:luminance" maskUnits="userSpaceOnUse" x="14" y="14" width="139" height="139">
<path d="M150.844 99.6278C159.756 62.4295 136.826 25.0494 99.6278 16.1371C62.4295 7.22484 25.0494 30.1552 16.1371 67.3535C7.22484 104.552 30.1552 141.932 67.3535 150.844C104.552 159.756 141.932 136.826 150.844 99.6278Z" fill="white"/>
</mask>
<g mask="url(#mask5_28_6823)">
<path d="M46.9369 77.4167C46.9369 81.6161 43.5337 85.0193 39.3343 85.0193C35.1349 85.0193 31.7305 81.6155 31.7305 77.4167V73.5554C31.7305 69.356 35.1349 65.9521 39.3343 65.9521C43.5337 65.9521 46.9369 69.356 46.9369 73.5554V77.4167Z" fill="#FEB384"/>
<path d="M132.627 77.4167C132.627 81.6161 129.223 85.0193 125.024 85.0193C120.825 85.0193 117.421 81.6155 117.421 77.4167V73.5554C117.421 69.356 120.825 65.9521 125.024 65.9521C129.223 65.9521 132.627 69.356 132.627 73.5554V77.4167Z" fill="#FEB384"/>
<path d="M49.8543 76.7398C49.8543 79.4657 46.7325 81.6762 42.8811 81.6762C39.0291 81.6762 35.9072 79.4657 35.9072 76.7398V74.2329C35.9072 71.5064 39.0291 69.2959 42.8811 69.2959C46.7325 69.2959 49.8543 71.5058 49.8543 74.2329V76.7398Z" fill="#DE9C73"/>
<path d="M128.453 76.7398C128.453 79.4657 125.33 81.6762 121.477 81.6762C117.627 81.6762 114.504 79.4657 114.504 76.7398V74.2329C114.504 71.5064 117.628 69.2959 121.477 69.2959C125.33 69.2959 128.453 71.5058 128.453 74.2329V76.7398Z" fill="#DE9C73"/>
<path d="M125.024 78.4582C125.024 96.3395 110.527 110.837 92.6461 110.837H71.7121C53.8295 110.837 39.334 96.3395 39.334 78.4582C39.334 60.5756 53.8295 46.0801 71.7121 46.0801H92.6461C110.527 46.0801 125.024 60.5762 125.024 78.4582Z" fill="#FEDFB8"/>
<path d="M50.5771 78.1025C46.9771 78.1025 44.0576 81.0215 44.0576 84.6214C44.0576 88.2219 46.9771 91.1408 50.5771 91.1408C54.177 91.1408 57.0965 88.2219 57.0965 84.6214C57.0965 81.0215 54.177 78.1025 50.5771 78.1025Z" fill="#FFB6A1"/>
<path d="M113.88 78.1025C110.281 78.1025 107.362 81.0215 107.362 84.6214C107.362 88.2219 110.281 91.1408 113.88 91.1408C117.482 91.1408 120.4 88.2219 120.4 84.6214C120.4 81.0215 117.482 78.1025 113.88 78.1025Z" fill="#FFB6A1"/>
<path d="M48.6655 63.9332C58.0397 59.5956 70.232 58.9713 82.024 52.7905C93.816 58.9719 106.009 59.5962 115.383 63.9332C117.914 65.1041 120.447 66.153 122.966 67.088C121.561 54.3884 106.526 42.0859 92.647 42.0859H71.7129C57.886 42.0859 44.4817 51.627 41.4482 66.948C43.8467 66.0478 46.2564 65.0475 48.6655 63.9332Z" fill="#99571D"/>
<path d="M69.7869 72.3122C69.7869 75.566 67.1494 78.203 63.8962 78.203C60.6418 78.203 58.0049 75.566 58.0049 72.3122C58.0049 69.0584 60.6424 66.4209 63.8962 66.4209C67.1488 66.4215 69.7869 69.0584 69.7869 72.3122Z" fill="#574444"/>
<path d="M63.8959 77.1575C60.8182 77.1575 58.2959 74.7982 58.0307 71.7891C58.0158 71.9615 58.0039 72.1358 58.0039 72.3126C58.0039 75.5664 60.6415 78.2033 63.8953 78.2033C67.1484 78.2033 69.786 75.5664 69.786 72.3126C69.786 72.1358 69.7748 71.9621 69.7592 71.7891C69.4946 74.7982 66.9723 77.1575 63.8959 77.1575Z" fill="#473838"/>
<path d="M64.467 70.6853C64.467 71.8998 63.4821 72.8846 62.2676 72.8846C61.0525 72.8846 60.0684 71.8998 60.0684 70.6853C60.0684 69.4701 61.0525 68.4854 62.2676 68.4854C63.4821 68.4854 64.467 69.4701 64.467 70.6853Z" fill="white"/>
<path d="M106.355 72.3122C106.355 75.566 103.717 78.203 100.464 78.203C97.211 78.203 94.5723 75.566 94.5723 72.3122C94.5723 69.0584 97.2104 66.4209 100.464 66.4209C103.717 66.4215 106.355 69.0584 106.355 72.3122Z" fill="#574444"/>
<path d="M100.464 77.1575C97.386 77.1575 94.8642 74.7982 94.5996 71.7891C94.5841 71.9615 94.5723 72.1358 94.5723 72.3126C94.5723 75.5664 97.2104 78.2033 100.464 78.2033C103.717 78.2033 106.355 75.5664 106.355 72.3126C106.355 72.1358 106.343 71.9621 106.328 71.7891C106.063 74.7982 103.541 77.1575 100.464 77.1575Z" fill="#473838"/>
<path d="M101.035 70.6853C101.035 71.8998 100.051 72.8846 98.8354 72.8846C97.6209 72.8846 96.6367 71.8998 96.6367 70.6853C96.6367 69.4701 97.6209 68.4854 98.8354 68.4854C100.051 68.4854 101.035 69.4701 101.035 70.6853Z" fill="white"/>
<path d="M87.3511 80.0121C87.4358 72.1275 76.9249 72.1275 77.0083 80.0121" stroke="#DE9C73" stroke-width="2" stroke-miterlimit="10" stroke-linecap="round" stroke-linejoin="round"/>
<path d="M98.8362 84.7119C90.2575 94.8848 74.1018 94.8848 65.5225 84.7119" stroke="#AD515F" stroke-width="3" stroke-miterlimit="10" stroke-linecap="round" stroke-linejoin="round"/>
<path d="M55.1914 68.486C55.1914 68.486 55.2549 68.2127 55.3844 67.7428C55.4199 67.6257 55.4485 67.4944 55.4989 67.3556C55.5606 67.2186 55.6278 67.0705 55.6987 66.9117C55.7734 66.7511 55.8525 66.5806 55.9359 66.4C56.0268 66.2245 56.1501 66.062 56.2652 65.879C56.3866 65.7016 56.4999 65.503 56.6443 65.3206C56.7981 65.1445 56.9568 64.9627 57.1205 64.7759C57.2786 64.5817 57.4648 64.4068 57.6621 64.235C57.8557 64.0601 58.0568 63.8802 58.2722 63.714C58.7229 63.412 59.1698 63.0578 59.6933 62.8213C60.1938 62.5368 60.7478 62.3538 61.2888 62.1371C61.8553 61.9983 62.413 61.8272 62.9857 61.7686C63.5491 61.6553 64.1193 61.6871 64.6615 61.6709C64.9335 61.6821 65.2012 61.7101 65.4608 61.7412C65.721 61.7668 65.9737 61.8023 66.2159 61.8682C66.4574 61.9255 66.6921 61.9815 66.9193 62.0357C67.1428 62.101 67.3507 62.1969 67.5524 62.271C67.7516 62.3532 67.9477 62.416 68.122 62.5044C68.2919 62.6015 68.4538 62.6943 68.605 62.7808C68.7538 62.868 68.8933 62.9495 69.0221 63.0248C69.1454 63.1095 69.2493 63.2029 69.3477 63.2782C69.733 63.5907 69.9378 63.7737 69.9378 63.7737C69.9378 63.7737 69.6695 63.6747 69.2257 63.4936C69.1142 63.45 68.996 63.3921 68.8603 63.3473C68.7221 63.3074 68.5733 63.2639 68.4139 63.2178C68.2571 63.1711 68.0902 63.122 67.9147 63.0697C67.7373 63.0261 67.5456 62.9962 67.3507 62.957C67.154 62.924 66.9542 62.8711 66.7413 62.8499C66.529 62.83 66.3093 62.8095 66.0833 62.7883C65.8604 62.7559 65.6276 62.7553 65.3904 62.7646C65.1539 62.7752 64.9136 62.7534 64.6696 62.7671C64.1803 62.8144 63.6786 62.8512 63.1756 62.9557C62.6658 63.018 62.1709 63.191 61.6685 63.3218C61.183 63.5054 60.68 63.6517 60.2281 63.8963C59.7562 64.1011 59.3267 64.3638 58.9009 64.6085C58.6942 64.7392 58.5106 64.8948 58.3114 65.0237C58.1128 65.1544 57.9242 65.2895 57.7605 65.4451C57.5887 65.5933 57.4218 65.7371 57.26 65.8765C57.0987 66.0172 56.9668 66.1759 56.8255 66.3172C56.6898 66.4623 56.5503 66.5992 56.4314 66.7356C56.32 66.8775 56.2142 67.0126 56.1146 67.1396C56.0119 67.2684 55.916 67.3892 55.827 67.5012C55.7411 67.6189 55.6763 67.7384 55.6104 67.8405C55.3501 68.2551 55.1914 68.486 55.1914 68.486Z" fill="#B06421"/>
<path d="M108.561 68.4857C108.561 68.4857 108.402 68.2542 108.143 67.8415C108.077 67.7394 108.011 67.6199 107.926 67.5022C107.837 67.3902 107.741 67.2694 107.638 67.1405C107.539 67.0135 107.433 66.8785 107.321 66.7365C107.203 66.6002 107.063 66.4633 106.927 66.3188C106.786 66.1775 106.654 66.0188 106.493 65.8781C106.331 65.7387 106.164 65.5949 105.992 65.4467C105.829 65.2911 105.64 65.156 105.441 65.0253C105.243 64.8964 105.058 64.7408 104.852 64.6094C104.425 64.3648 103.996 64.1021 103.524 63.8973C103.073 63.6533 102.57 63.5064 102.084 63.3227C101.582 63.192 101.087 63.019 100.577 62.9567C100.073 62.8528 99.5722 62.8154 99.0829 62.7681C98.8383 62.7544 98.5992 62.7756 98.3621 62.7656C98.1243 62.7563 97.8921 62.7569 97.6692 62.7893C97.4439 62.8104 97.2241 62.8303 97.0113 62.8509C96.7984 62.872 96.5992 62.925 96.4018 62.9579C96.207 62.9978 96.0146 63.027 95.8372 63.0706C95.6617 63.1229 95.4949 63.1727 95.338 63.2188C95.1786 63.2648 95.0298 63.3084 94.8916 63.3483C94.7553 63.3937 94.6377 63.451 94.5256 63.4945C94.0824 63.6763 93.8135 63.7747 93.8135 63.7747C93.8135 63.7747 94.0183 63.5917 94.4036 63.2792C94.5013 63.2038 94.6053 63.1105 94.7286 63.0258C94.8574 62.9505 94.9968 62.8689 95.1462 62.7818C95.2975 62.6946 95.4594 62.6025 95.6287 62.5054C95.8036 62.4164 95.9991 62.3541 96.1989 62.272C96.4006 62.1979 96.6079 62.102 96.832 62.0367C97.0592 61.9825 97.2939 61.9265 97.5354 61.8692C97.7776 61.8026 98.0303 61.7677 98.2905 61.7422C98.5501 61.7117 98.8184 61.6831 99.0898 61.6719C99.6314 61.6874 100.202 61.6563 100.765 61.7696C101.338 61.8281 101.895 61.9993 102.462 62.1381C103.003 62.3548 103.557 62.5378 104.057 62.8222C104.581 63.0582 105.028 63.413 105.478 63.7149C105.694 63.8811 105.894 64.0604 106.088 64.2359C106.285 64.4071 106.471 64.5827 106.629 64.7769C106.793 64.9636 106.951 65.1454 107.106 65.3216C107.25 65.504 107.363 65.7025 107.485 65.88C107.6 66.063 107.723 66.2261 107.814 66.401C107.898 66.5815 107.977 66.7521 108.051 66.9127C108.122 67.0708 108.189 67.2196 108.251 67.3565C108.301 67.4954 108.33 67.6267 108.366 67.7437C108.498 68.2125 108.561 68.4857 108.561 68.4857Z" fill="#B06421"/>
</g>
<mask id="mask6_28_6823" style="mask-type:luminance" maskUnits="userSpaceOnUse" x="14" y="14" width="139" height="139">
<path d="M150.844 99.6278C159.756 62.4295 136.826 25.0494 99.6278 16.1371C62.4295 7.22484 25.0494 30.1552 16.1371 67.3535C7.22484 104.552 30.1552 141.932 67.3535 150.844C104.552 159.756 141.932 136.826 150.844 99.6278Z" fill="white"/>
</mask>
<g mask="url(#mask6_28_6823)">
<path d="M35.751 138.035C35.751 147.673 42.2611 155.784 51.1205 158.227V129.412C51.1205 125.503 49.2935 122.026 46.4536 119.767C40.068 123.354 35.751 130.189 35.751 138.035Z" fill="#1F7674"/>
<path d="M128.607 138.035C128.607 130.189 124.29 123.354 117.905 119.766C115.064 122.025 113.238 125.502 113.238 129.411V158.226C122.098 155.783 128.607 147.671 128.607 138.035Z" fill="#1F7674"/>
</g>
</svg>
