<svg width="1920" height="1080" viewBox="0 0 1920 1080" fill="none" xmlns="http://www.w3.org/2000/svg">
<g clip-path="url(#clip0)">
<g opacity="0.9">
<mask id="path-1-inside-1" fill="white">
<path d="M2030.74 510.948L1830.95 710.735C1720.61 600.396 1720.61 421.499 1830.95 311.159L2030.74 510.948ZM2030.74 111.372L1830.95 311.16C1720.61 200.82 1720.61 21.9242 1830.95 -88.4155L2030.74 111.372Z"/>
</mask>
<path d="M2030.74 510.948L2032.86 513.069L2034.98 510.948L2032.86 508.827L2030.74 510.948ZM1830.95 710.735L1828.83 712.857L1830.95 714.978L1833.07 712.857L1830.95 710.735ZM1830.95 311.159L1833.07 309.038L1830.95 306.917L1828.83 309.038L1830.95 311.159ZM2030.74 111.372L2032.86 113.494L2034.98 111.372L2032.86 109.251L2030.74 111.372ZM1830.95 311.16L1828.83 313.281L1830.95 315.402L1833.07 313.281L1830.95 311.16ZM1830.95 -88.4155L1833.07 -90.5368L1830.95 -92.6581L1828.83 -90.5368L1830.95 -88.4155ZM2030.74 510.948L2028.61 508.827L1828.83 708.614L1830.95 710.735L1833.07 712.857L2032.86 513.069L2030.74 510.948ZM1830.95 710.735L1833.07 708.614C1723.9 599.446 1723.9 422.449 1833.07 313.281L1830.95 311.159L1828.83 309.038C1717.32 420.549 1717.32 601.345 1828.83 712.857L1830.95 710.735ZM1830.95 311.159L1828.83 313.281L2028.61 513.069L2030.74 510.948L2032.86 508.827L1833.07 309.038L1830.95 311.159ZM2030.74 111.372L2028.61 109.251L1828.83 309.038L1830.95 311.16L1833.07 313.281L2032.86 113.494L2030.74 111.372ZM1830.95 311.16L1833.07 309.038C1723.9 199.87 1723.9 22.874 1833.07 -86.2941L1830.95 -88.4155L1828.83 -90.5368C1717.32 20.9745 1717.32 201.77 1828.83 313.281L1830.95 311.16ZM1830.95 -88.4155L1828.83 -86.2941L2028.61 113.494L2030.74 111.372L2032.86 109.251L1833.07 -90.5368L1830.95 -88.4155Z" fill="url(#paint0_linear)" mask="url(#path-1-inside-1)"/>
</g>
</g>
<defs>
<linearGradient id="paint0_linear" x1="1304.71" y1="637.608" x2="1957.61" y2="-15.2876" gradientUnits="userSpaceOnUse">
<stop stop-color="#00BC7D"/>
<stop offset="1" stop-color="white"/>
</linearGradient>
<clipPath id="clip0">
<rect width="1920" height="1080" fill="white"/>
</clipPath>
</defs>
</svg>