<svg width="1920" height="1080" viewBox="0 0 1920 1080" fill="none" xmlns="http://www.w3.org/2000/svg">
<g clip-path="url(#clip0_39_5222)">
<rect width="1920" height="1080" fill="white"/>
<g opacity="0.9">
<mask id="path-1-inside-1_39_5222" fill="white">
<path d="M2030.74 510.948L1830.95 710.735C1720.61 600.396 1720.61 421.499 1830.95 311.159L2030.74 510.948ZM1431.37 -88.4155C1541.71 21.9241 1541.71 200.819 1431.37 311.159C1541.71 421.499 1541.71 600.395 1431.37 710.735L1231.58 510.947L1431.37 311.16L1231.58 111.372L1431.37 -88.4155ZM2030.74 111.372L1830.95 311.16C1720.61 200.82 1720.61 21.9242 1830.95 -88.4155L2030.74 111.372Z"/>
</mask>
<path d="M2030.74 510.948L2032.86 513.069L2034.98 510.948L2032.86 508.827L2030.74 510.948ZM1830.95 710.735L1828.83 712.857L1830.95 714.978L1833.07 712.857L1830.95 710.735ZM1830.95 311.159L1833.07 309.038L1830.95 306.917L1828.83 309.038L1830.95 311.159ZM1431.37 -88.4155L1433.49 -90.5368L1431.37 -92.6582L1429.25 -90.5369L1431.37 -88.4155ZM1431.37 311.159L1429.25 309.038L1427.13 311.159L1429.25 313.28L1431.37 311.159ZM1431.37 710.735L1429.25 712.857L1431.37 714.978L1433.49 712.857L1431.37 710.735ZM1231.58 510.947L1229.46 508.826L1227.34 510.947L1229.46 513.069L1231.58 510.947ZM1431.37 311.16L1433.49 313.281L1435.61 311.16L1433.49 309.039L1431.37 311.16ZM1231.58 111.372L1229.46 109.25L1227.34 111.372L1229.46 113.493L1231.58 111.372ZM2030.74 111.372L2032.86 113.494L2034.98 111.372L2032.86 109.251L2030.74 111.372ZM1830.95 311.16L1828.83 313.281L1830.95 315.402L1833.07 313.281L1830.95 311.16ZM1830.95 -88.4155L1833.07 -90.5368L1830.95 -92.6581L1828.83 -90.5368L1830.95 -88.4155ZM2030.74 510.948L2028.61 508.827L1828.83 708.614L1830.95 710.735L1833.07 712.857L2032.86 513.069L2030.74 510.948ZM1830.95 710.735L1833.07 708.614C1723.9 599.446 1723.9 422.449 1833.07 313.281L1830.95 311.159L1828.83 309.038C1717.32 420.549 1717.32 601.345 1828.83 712.857L1830.95 710.735ZM1830.95 311.159L1828.83 313.281L2028.61 513.069L2030.74 510.948L2032.86 508.827L1833.07 309.038L1830.95 311.159ZM1431.37 -88.4155L1429.25 -86.2942C1538.42 22.8738 1538.42 199.87 1429.25 309.038L1431.37 311.159L1433.49 313.28C1545 201.769 1545 20.9744 1433.49 -90.5368L1431.37 -88.4155ZM1431.37 311.159L1429.25 313.28C1538.42 422.449 1538.42 599.446 1429.25 708.614L1431.37 710.735L1433.49 712.857C1545.01 601.345 1545.01 420.549 1433.49 309.038L1431.37 311.159ZM1431.37 710.735L1433.49 708.614L1233.71 508.826L1231.58 510.947L1229.46 513.069L1429.25 712.857L1431.37 710.735ZM1231.58 510.947L1233.71 513.069L1433.49 313.281L1431.37 311.16L1429.25 309.039L1229.46 508.826L1231.58 510.947ZM1431.37 311.16L1433.49 309.039L1233.71 109.25L1231.58 111.372L1229.46 113.493L1429.25 313.281L1431.37 311.16ZM1231.58 111.372L1233.71 113.493L1433.49 -86.2942L1431.37 -88.4155L1429.25 -90.5369L1229.46 109.25L1231.58 111.372ZM2030.74 111.372L2028.61 109.251L1828.83 309.038L1830.95 311.16L1833.07 313.281L2032.86 113.494L2030.74 111.372ZM1830.95 311.16L1833.07 309.038C1723.9 199.87 1723.9 22.874 1833.07 -86.2941L1830.95 -88.4155L1828.83 -90.5368C1717.32 20.9745 1717.32 201.77 1828.83 313.281L1830.95 311.16ZM1830.95 -88.4155L1828.83 -86.2941L2028.61 113.494L2030.74 111.372L2032.86 109.251L1833.07 -90.5368L1830.95 -88.4155Z" fill="url(#paint0_linear_39_5222)" mask="url(#path-1-inside-1_39_5222)"/>
</g>
<g opacity="0.9">
<mask id="path-3-inside-2_39_5222" fill="white">
<path d="M504.234 1082.42L312.15 982.284L212.017 1174.37L19.9316 1074.24C75.2337 968.151 206.063 926.982 312.149 982.283C367.451 876.198 498.282 835.031 604.367 890.333L504.234 1082.42ZM512.416 598.114C457.114 704.199 326.284 745.367 220.199 690.066C164.896 796.151 34.0658 837.319 -72.0197 782.017L28.1131 589.932L220.197 690.064L320.332 497.981L512.416 598.114Z"/>
</mask>
<path d="M504.234 1082.42L502.847 1085.08L505.507 1086.47L506.894 1083.81L504.234 1082.42ZM312.15 982.284L313.537 979.624L310.877 978.237L309.49 980.897L312.15 982.284ZM212.017 1174.37L210.63 1177.03L213.29 1178.42L214.677 1175.76L212.017 1174.37ZM19.9316 1074.24L17.2714 1072.85L15.8846 1075.51L18.5448 1076.9L19.9316 1074.24ZM312.149 982.283L310.762 984.943L313.422 986.33L314.809 983.669L312.149 982.283ZM604.367 890.333L607.027 891.719L608.414 889.059L605.754 887.672L604.367 890.333ZM512.416 598.114L515.076 599.501L516.463 596.841L513.802 595.454L512.416 598.114ZM220.199 690.066L221.585 687.405L218.925 686.019L217.538 688.679L220.199 690.066ZM-72.0197 782.017L-74.68 780.63L-76.0667 783.29L-73.4065 784.677L-72.0197 782.017ZM28.1131 589.932L29.4999 587.272L26.8396 585.885L25.4529 588.545L28.1131 589.932ZM220.197 690.064L218.81 692.725L221.471 694.111L222.857 691.451L220.197 690.064ZM320.332 497.981L321.718 495.321L319.058 493.934L317.671 496.594L320.332 497.981ZM504.234 1082.42L505.62 1079.76L313.537 979.624L312.15 982.284L310.763 984.944L502.847 1085.08L504.234 1082.42ZM312.15 982.284L309.49 980.897L209.356 1172.98L212.017 1174.37L214.677 1175.76L314.81 983.671L312.15 982.284ZM212.017 1174.37L213.403 1171.71L21.3184 1071.58L19.9316 1074.24L18.5448 1076.9L210.63 1177.03L212.017 1174.37ZM19.9316 1074.24L22.5918 1075.62C77.128 971.007 206.146 930.408 310.762 984.943L312.149 982.283L313.535 979.622C205.981 923.556 73.3394 965.295 17.2714 1072.85L19.9316 1074.24ZM312.149 982.283L314.809 983.669C369.345 879.054 498.364 838.457 602.98 892.993L604.367 890.333L605.754 887.672C498.199 831.605 365.557 873.342 309.488 980.896L312.149 982.283ZM604.367 890.333L601.707 888.946L501.573 1081.03L504.234 1082.42L506.894 1083.81L607.027 891.719L604.367 890.333ZM512.416 598.114L509.755 596.728C455.219 701.343 326.202 741.941 221.585 687.405L220.199 690.066L218.812 692.726C326.366 748.793 459.008 707.055 515.076 599.501L512.416 598.114ZM220.199 690.066L217.538 688.679C163.002 793.295 33.9834 833.893 -70.633 779.357L-72.0197 782.017L-73.4065 784.677C34.1483 840.745 166.791 799.007 222.859 691.452L220.199 690.066ZM-72.0197 782.017L-69.3595 783.404L30.7733 591.319L28.1131 589.932L25.4529 588.545L-74.68 780.63L-72.0197 782.017ZM28.1131 589.932L26.7263 592.592L218.81 692.725L220.197 690.064L221.584 687.404L29.4999 587.272L28.1131 589.932ZM220.197 690.064L222.857 691.451L322.992 499.368L320.332 497.981L317.671 496.594L217.537 688.677L220.197 690.064ZM320.332 497.981L318.945 500.641L511.029 600.775L512.416 598.114L513.802 595.454L321.718 495.321L320.332 497.981Z" fill="url(#paint1_linear_39_5222)" mask="url(#path-3-inside-2_39_5222)"/>
</g>
</g>
<defs>
<linearGradient id="paint0_linear_39_5222" x1="1304.71" y1="637.608" x2="1957.61" y2="-15.2876" gradientUnits="userSpaceOnUse">
<stop stop-color="#00BC7D"/>
<stop offset="1" stop-color="white"/>
</linearGradient>
<linearGradient id="paint1_linear_39_5222" x1="508.148" y1="594.2" x2="24.1981" y2="1078.15" gradientUnits="userSpaceOnUse">
<stop stop-color="#00BC7D"/>
<stop offset="1" stop-color="white"/>
</linearGradient>
<clipPath id="clip0_39_5222">
<rect width="1920" height="1080" fill="white"/>
</clipPath>
</defs>
</svg>
