<svg width="1920" height="1080" viewBox="0 0 1920 1080" fill="none" xmlns="http://www.w3.org/2000/svg">
<defs>
  <!-- Gradients -->
  <linearGradient id="paint0_linear_41_5234" x1="1098.84" y1="1098.87" x2="910.827" y2="197.629" gradientUnits="userSpaceOnUse">
    <stop stop-color="#00BC7D"/>
    <stop offset="1" stop-color="white"/>
  </linearGradient>
  
  <linearGradient id="centerGradient" x1="0%" y1="0%" x2="100%" y2="100%">
    <stop offset="0%" stop-color="#10B981" stop-opacity="0.15"/>
    <stop offset="50%" stop-color="#14B8A6" stop-opacity="0.08"/>
    <stop offset="100%" stop-color="#06B6D4" stop-opacity="0.12"/>
  </linearGradient>
  
  <linearGradient id="flowLineGradient" x1="0%" y1="0%" x2="100%" y2="0%">
    <stop offset="0%" stop-color="#10B981" stop-opacity="0"/>
    <stop offset="50%" stop-color="#10B981" stop-opacity="0.3"/>
    <stop offset="100%" stop-color="#10B981" stop-opacity="0"/>
  </linearGradient>
  
  <linearGradient id="softBlobGradient" x1="0%" y1="0%" x2="100%" y2="100%">
    <stop offset="0%" stop-color="#34D399" stop-opacity="0.1"/>
    <stop offset="100%" stop-color="#5EEAD4" stop-opacity="0.05"/>
  </linearGradient>
  
  <clipPath id="clip0_41_5234">
    <rect width="1920" height="1080" fill="white"/>
  </clipPath>
</defs>

<g clip-path="url(#clip0_41_5234)">
  <rect width="1920" height="1080" fill="white"/>
  
  <!-- LAYER 1: Soft background blobs filling center area -->
  <g opacity="0.6">
    <!-- Large soft circle - upper center -->
    <ellipse cx="960" cy="380" rx="280" ry="200" fill="url(#softBlobGradient)"/>
    
    <!-- Medium soft circle - center left -->
    <ellipse cx="720" cy="540" rx="180" ry="150" fill="url(#softBlobGradient)" transform="rotate(-15 720 540)"/>
    
    <!-- Medium soft circle - center right -->
    <ellipse cx="1200" cy="480" rx="200" ry="160" fill="url(#softBlobGradient)" transform="rotate(10 1200 480)"/>
    
    <!-- Small accent circles scattered -->
    <circle cx="850" cy="650" r="80" fill="#10B981" fill-opacity="0.06"/>
    <circle cx="1080" cy="350" r="60" fill="#14B8A6" fill-opacity="0.08"/>
    <circle cx="1150" cy="680" r="100" fill="#0D9488" fill-opacity="0.05"/>
  </g>
  
  <!-- LAYER 2: Subtle connecting flow lines (curved paths) -->
  <g opacity="0.4">
    <!-- Flow line 1: sweeping curve from left to center -->
    <path 
      d="M 200 300 Q 500 400, 750 450 T 1100 500" 
      stroke="url(#flowLineGradient)" 
      stroke-width="2" 
      fill="none"
      stroke-linecap="round"
    />
    
    <!-- Flow line 2: connecting upper to lower -->
    <path 
      d="M 400 600 Q 650 450, 900 480 T 1300 550" 
      stroke="url(#flowLineGradient)" 
      stroke-width="1.5" 
      fill="none"
      stroke-linecap="round"
    />
    
    <!-- Flow line 3: subtle arc in center -->
    <path 
      d="M 600 250 Q 900 350, 1100 280" 
      stroke="#10B981" 
      stroke-opacity="0.15"
      stroke-width="1" 
      fill="none"
      stroke-linecap="round"
    />
    
    <!-- Dotted connecting path -->
    <path 
      d="M 300 450 Q 600 500, 850 520 T 1200 480 T 1500 550" 
      stroke="#14B8A6" 
      stroke-opacity="0.2"
      stroke-width="1" 
      stroke-dasharray="8 12"
      fill="none"
      stroke-linecap="round"
    />
  </g>
  
  <!-- LAYER 3: Central organic shape (extended blob) -->
  <g opacity="0.25">
    <path 
      d="M 750 350 
         C 850 280, 1050 300, 1150 380 
         C 1250 460, 1200 600, 1100 680 
         C 1000 760, 800 720, 720 640 
         C 640 560, 650 420, 750 350 Z" 
      fill="url(#centerGradient)"
    />
  </g>
  
  <!-- LAYER 4: Small decorative dots/particles -->
  <g opacity="0.5">
    <circle cx="680" cy="420" r="4" fill="#10B981" fill-opacity="0.4"/>
    <circle cx="920" cy="380" r="3" fill="#14B8A6" fill-opacity="0.5"/>
    <circle cx="1100" cy="450" r="5" fill="#10B981" fill-opacity="0.3"/>
    <circle cx="780" cy="580" r="3" fill="#0D9488" fill-opacity="0.4"/>
    <circle cx="1050" cy="600" r="4" fill="#14B8A6" fill-opacity="0.35"/>
    <circle cx="850" cy="480" r="2" fill="#10B981" fill-opacity="0.5"/>
    <circle cx="1180" cy="520" r="3" fill="#0D9488" fill-opacity="0.4"/>
    <circle cx="650" cy="500" r="2" fill="#14B8A6" fill-opacity="0.45"/>
  </g>
  
  <!-- LAYER 5: Original geometric shapes (preserved) -->
  <g opacity="0.9">
    <mask id="path-1-inside-1_41_5234" fill="white">
      <path d="M1406.24 567.029L1301.02 829.247C1156.2 771.133 1085.91 606.624 1144.02 461.805L1406.24 567.029ZM619.587 251.359C764.406 309.472 834.694 473.981 776.582 618.8C921.401 676.913 991.69 841.422 933.577 986.242L671.359 881.018L776.58 618.801L514.363 513.577L619.587 251.359ZM1249.25 199.588L1144.02 461.806C999.204 403.692 928.916 239.183 987.029 94.3642L1249.25 199.588Z"/>
    </mask>
    <path d="M1406.24 567.029L1409.03 568.146L1410.14 565.362L1407.36 564.245L1406.24 567.029ZM1301.02 829.247L1299.9 832.031L1302.69 833.148L1303.8 830.364L1301.02 829.247ZM1144.02 461.805L1145.14 459.021L1142.36 457.903L1141.24 460.687L1144.02 461.805ZM619.587 251.359L620.704 248.575L617.92 247.458L616.803 250.242L619.587 251.359ZM776.582 618.8L773.797 617.683L772.68 620.467L775.464 621.584L776.582 618.8ZM933.577 986.242L932.459 989.026L935.244 990.143L936.361 987.359L933.577 986.242ZM671.359 881.018L668.575 879.901L667.457 882.685L670.242 883.802L671.359 881.018ZM776.58 618.801L779.365 619.919L780.482 617.134L777.698 616.017L776.58 618.801ZM514.363 513.577L511.579 512.46L510.462 515.244L513.246 516.361L514.363 513.577ZM1249.25 199.588L1252.03 200.705L1253.15 197.921L1250.36 196.804L1249.25 199.588ZM1144.02 461.806L1142.91 464.59L1145.69 465.707L1146.81 462.923L1144.02 461.806ZM987.029 94.3642L988.146 91.58L985.362 90.4627L984.244 93.2469L987.029 94.3642ZM1406.24 567.029L1403.46 565.912L1298.23 828.129L1301.02 829.247L1303.8 830.364L1409.03 568.146L1406.24 567.029ZM1301.02 829.247L1302.14 826.462C1158.85 768.966 1089.31 606.203 1146.81 462.922L1144.02 461.805L1141.24 460.687C1082.51 607.044 1153.54 773.301 1299.9 832.031L1301.02 829.247ZM1144.02 461.805L1142.91 464.589L1405.12 569.813L1406.24 567.029L1407.36 564.245L1145.14 459.021L1144.02 461.805ZM619.587 251.359L618.47 254.143C761.751 311.64 831.293 474.401 773.797 617.683L776.582 618.8L779.366 619.917C838.095 473.56 767.06 307.305 620.704 248.575L619.587 251.359ZM776.582 618.8L775.464 621.584C918.746 679.08 988.289 841.843 930.793 985.124L933.577 986.242L936.361 987.359C995.091 841.002 924.056 674.746 777.699 616.016L776.582 618.8ZM933.577 986.242L934.694 983.458L672.476 878.234L671.359 881.018L670.242 883.802L932.459 989.026L933.577 986.242ZM671.359 881.018L674.143 882.135L779.365 619.919L776.58 618.801L773.796 617.684L668.575 879.901L671.359 881.018ZM776.58 618.801L777.698 616.017L515.48 510.793L514.363 513.577L513.246 516.361L775.463 621.586L776.58 618.801ZM514.363 513.577L517.147 514.694L622.371 252.477L619.587 251.359L616.803 250.242L511.579 512.46L514.363 513.577ZM1249.25 199.588L1246.46 198.47L1141.24 460.688L1144.02 461.806L1146.81 462.923L1252.03 200.705L1249.25 199.588ZM1144.02 461.806L1145.14 459.021C1001.86 401.525 932.317 238.763 989.813 95.4814L987.029 94.3642L984.244 93.2469C925.514 239.604 996.549 405.859 1142.91 464.59L1144.02 461.806ZM987.029 94.3642L985.911 97.1484L1248.13 202.372L1249.25 199.588L1250.36 196.804L988.146 91.58L987.029 94.3642Z" fill="url(#paint0_linear_41_5234)" mask="url(#path-1-inside-1_41_5234)"/>
  </g>
</g>
</svg>
